<svg xmlns="http://www.w3.org/2000/svg" viewBox="0 -0.11 36 36" fill="currentColor"><path d="M18.64,4.35a8.22,8.22,0,0,0-0.05-0.87c1.65 0.05,3.8 0.29,3.8 0.29a0.47 0.47,0,1,0,0-0.94s-2.2 0.24-3.85 0.29c-0.09-0.46-0.24-0.87-0.52-0.87s-0.44 0.41-0.52 0.87c-1.62,0-3.85-0.29-3.85-0.29a0.47 0.47,0,1,0,0,0.94s2.19-0.23,3.8-0.29a8.22,8.22,0,0,0-0.05 0.86H16.6A1.75,1.75,0,0,0,14.85,6.1V8.2s-11.2,0-11.2,0a1.4,1.4,0,0,0-1.4,1.4v2.1a1.4,1.4,0,0,0,1.4,1.4l11.2,2.1A63,63,0,0,0,16.2,28L13,28.5a0.86 0.86,0,0,0-0.64 0.91l0.17 0.62c0.09 0.34 0.41 0.6,1,0.6h3.32c0.42,1.42,1,2.74,1,2.84a0.13 0.13,0,0,0,0.23,0l1-2.83h3.32c0.6,0,0.92-0.26,1-0.6l0.17-0.62A0.86 0.86,0,0,0,23,28.5L19.8,28A63,63,0,0,0,21.15,15.2l11.2-1.4a1.4,1.4,0,0,0,1.4-1.4V9.6a1.4,1.4,0,0,0-1.4-1.4H21.15V6.1A1.74,1.74,0,0,0,19.4,4.35Z" /></svg>
