<svg xmlns="http://www.w3.org/2000/svg" viewBox="0 0 32.6 32.6" fill="currentColor"><g><g><g><path d="M31.3,12Z" /><path d="M3.7,26c-0.1 0.4 0.1 0.2,0,0Z" /><path d="M32.6,10.5c-0.2-1.9-2.3-6.1-4.8-6,0.3-0.4-0.5-0.4-0.5-0.4l-0.5-0.6a0.4 0.4,0,0,1-0.1 0.3c-0.2,0-0.2-0.6-0.4-0.6l-0.2 0.3c-0.4,0-0.8-0.9-1.4-1s-1.2-0.4-1.7-0.6A7.3,7.3,0,0,1,20.7,1c0,0.1-1-0.3-1.3-0.1S18.6 0.6,18.3 0.5L16.8,0h-1L14.6 0.4l-0.8 0.3a1.2,1.2,0,0,0-0.7 0.5c-0.2 0.5-0.3,1-0.5,1.4a1.4,1.4,0,0,0-0.2 0.6,4.3,4.3,0,0,1,0.1 0.5c0.1 0.3-0.1 0.8 0.1,1.1s0.1 0.2 0.2 0.2a0.9 0.9,0,0,0-0.1 0.7c0.1 0.2 0.2 0.2 0.4 0.1a0.4 0.4,0,0,0-0.1 0.3l0.4-0.3c-0.5 0.5-1.2,1.6-1,1.5s-0.3,1-0.7,1.2-1.7 0.1-2.5 0.4a3.4,3.4,0,0,0-1.8,1.5A4.6,4.6,0,0,0,7,11.7c-0.1 0.2-0.8,1.3-0.3,1S5.8,14,6.4,14s-0.9 0.8-0.4 0.9-0.9 0.7-0.3 0.8l-0.6 0.9c1.2-0.2-1.9,2.2-2,2.2h0.4c-0.7 0.1-0.5 0.5-0.3 0.6s-0.9 0.5-0.4 0.7-0.6 0.4-0.5 0.7-1.5,2-0.9,2.1-1.1 0.7-0.5 0.7-1,0.8-0.4 0.9-0.6 0.8-0.5,1.6a0.8 0.8,0,0,1,0.4-0.4,1,1,0,0,1-0.1 0.4H0.2a1.1,1.1,0,0,0,0.1 0.5 0.7 0.7,0,0,0-0.1 0.5c0.1 0.4 0.3 0.7 0.4,1.1a6.5,6.5,0,0,0,1.1,2.2l0.8 0.6c0.3 0.2 0.5 0.5 0.8 0.6a3.7,3.7,0,0,0,1.8 0.1H6.4l0.5-0.5c0.2-0.2 0.2-0.3 0.1-0.6v-1c0-0.2 0.1-0.6-0.1-0.8s-0.4,0-0.5 0.2a0.8 0.8,0,0,0-0.4-0.7H5.9c-0.1,0-0.2 0.2-0.3 0.4a0.3 0.3,0,0,0-0.5-0.1 0.8 0.8,0,0,0-0.2 0.5H4.5l-0.3 0.4c-0.1-0.1-0.1-0.3-0.2-0.5v-0.6a0.7 0.7,0,0,1-0.1-0.5l0.9-0.2 0.7 0.2H6c0.4-0.1-0.1-0.6-0.2-0.8a2.2,2.2,0,0,0-1.4-0.3,3.7,3.7,0,0,1-1.2-0.7h0c0.1,0,0.2-0.5 0.4-0.5s0.1,0,0.1 0.1 0.1-0.2 0.2-0.5 0.3 0.3 0.5-0.3 0.2,1.3 0.5 0.7 0.2 0.8 0.4 0.8 0.2-0.4 0.3-0.4 0.3 0.9 0.4,1v-0.4c0.4 0.3 0.2,1.7 0.6 0.7s0.5,1,0.8,1v-0.5a3.9,3.9,0,0,0,0.8,1,0.4 0.4,0,0,1,0-0.5,3.6,3.6,0,0,1,0.4 0.9c0.1-0.1 0.1-0.4 0.1-0.5a4.2,4.2,0,0,1,0.4,1,1.9,1.9,0,0,0,0.2-0.8l0.4 0.5V29c0,0.3 0.4 0.6 0.5 0.8h0.2v-0.4a8.6,8.6,0,0,0,0.7,1,3.6,3.6,0,0,1,0.4 0.9,2.3,2.3,0,0,0,0.7,1,1.3,1.3,0,0,0,1.2 0.1 0.6 0.6,0,0,0,0.4-0.7c0.2-0.1 0.5-0.2 0.5-0.5a0.7 0.7,0,0,0-0.1-0.6,1.2,1.2,0,0,0,0.5-0.5,1,1,0,0,0-0.2-0.7 0.6 0.6,0,0,0,0.1-0.4 0.7 0.7,0,0,0-0.1-0.6h0.3a3.8,3.8,0,0,0,1.5 0.1l0.7-0.3 0.4-0.2v0.2c0,0.6 0.6 0.3 0.8,0a1,1,0,0,1,0.4-0.5 0.4 0.4,0,0,1,0.5 0.1h0l-0.2 0.4a0.2 0.2,0,0,0-0.3,0c-0.2 0.1,0,0.6 0.1 0.8h0.7c-0.1 0.2,0,0.3 0.1 0.4h0.4l0.3 0.2c-0.2 0.2-0.1 0.4 0.1 0.5l0.8 0.2h0.7a1.8,1.8,0,0,0,0.5-0.8,2.9,2.9,0,0,0,0.2-0.9h0.2c0.3-0.3 0.2-0.5 0.4-0.1a1.4,1.4,0,0,1,0.2-0.6c0,0.1 0.1 0.2 0.1 0.3s0.2-0.5 0.2-0.7l0.3 0.3s0-0.8 0.2-0.8a0.8 0.8,0,0,0,0.1 0.4,1.9,1.9,0,0,1,0.2-0.8c0,0.1 0.1 0.3 0.1 0.4s0.1-1.5 0.3-0.8 0.1-0.5 0.1-0.8l0.2 0.3c0.1-0.3 0.1-0.6 0.2-0.9v0.3c0.2-1.1,1.1-2.8 0.2-3.8s-2.3-0.1-3.4 0.1c0.5-1.6-0.3-3.1-0.8-4.5a7.3,7.3,0,0,1-0.6-2.1c0.1-0.5 0.7-0.9 0.8-1.4l0.2 0.3a2.2,2.2,0,0,0,0.1-0.8c0.2 0.3 0.2 0.6 0.4 0.9s0.1-0.9 0.1-1.3a10.5,10.5,0,0,1,0.8,1.1c-0.2-0.6-0.1-0.6,0-0.9s0.3 0.4 0.4 0.5a2.2,2.2,0,0,1-0.1-0.8l0.5 0.5v-0.4c0.4 0.4 0.1 0.5 0.3-0.1s0.5 0.8 0.8 0.9a1.5,1.5,0,0,1-0.2-0.9l0.4 0.4v-0.5l0.4 0.5a0.5 0.5,0,0,0,0-0.5c0.2 0.2 0.3 0.4 0.5 0.5-0.1-1.6 0.5,1.3 0.3-0.6l0.8 0.7v-0.6c0.1 0.1 0.6 0.9 0.8 0.9a4.3,4.3,0,0,1-0.2-1.2c0.2 0.1 0.3 0.5 0.5 0.6a1.4,1.4,0,0,0-0.2-0.7,3.1,3.1,0,0,1,0.9,1.1,2.5,2.5,0,0,0-0.2-1.2c0.2,0,0.5 0.4 0.7 0.4v-0.4c0,0.1 0.1 0.2 0.4 0.2V12c0.1,0,0.7 0.5 0.9 0.5a1.9,1.9,0,0,1-0.3-0.8c0.6 0.4 0.7 0.7 0.7 0.1s0.3 0.1 0.3 0.2a0.8 0.8,0,0,1,0.1-0.4l0.4 0.3c-0.2-0.3-0.2-0.5,0-0.7l0.2 0.3a2.8,2.8,0,0,0,0.1-0.9 0.8 0.8,0,0,1,0.2 0.4,1.1,1.1,0,0,0,0.1-0.8C32.4,10.3,32.5,10.4,32.6,10.5ZM2.2,26.3Zm5.2-5.1a4.9,4.9,0,0,0-0.1,1.2H6.5a4.5,4.5,0,0,1,1-1.3C7.5,21.1,7.4,21.1,7.4,21.2Zm3.5,7.5c-0.1,0-0.1,0-0.1 0.1S10.8,28.7,10.9,28.7ZM18.4,7.6c0-0.2-0.5-1.5-0.6-1l-0.3-0.5c0-0.1-1-0.7-1.3-0.5s0-0.4-0.5,0l-0.2-0.3a0.4 0.4,0,0,1-0.1 0.3l-0.3-0.3c0,0.1-0.1 0.2-0.1 0.3l-0.2-0.2c-0.2 0.2-0.7,0-1.2 0.3h0.1V5.4a4.8,4.8,0,0,0,0-1.2,1.3,1.3,0,0,1,0.1-0.6,1.1,1.1,0,0,1,0.1-0.5h0.4a2.1,2.1,0,0,1,1.3-0.3l0.6 0.2h0.5a0.8 0.8,0,0,0-0.2 0.4c-0.1 0.3,0,0.9 0.4 0.6l0.7-0.7h0.7l0.5-0.2c0,0.3,0,1,0.2,1.1V3.7c0.2 0.3 0.2 0.7 0.5 0.8a0.9 0.9,0,0,1,0-0.7c0.1,0,0.2 0.5 0.3 0.5l0.2-0.3a1.8,1.8,0,0,0,0.4 0.9c0-0.2 0.1-0.4 0.1-0.7a2.4,2.4,0,0,0,0.6,1.1c-0.1-0.2,0-0.5,0-0.7a2.8,2.8,0,0,0,0.6 0.9V5a2.1,2.1,0,0,0,0.4 0.6 0.7 0.7,0,0,1,0.1-0.5,5.2,5.2,0,0,1,0.6,1.5c0-0.2 0.1-0.5 0.1-0.7s0.2 0.7 0.4 0.8a0.9 0.9,0,0,1,0.1-0.5c0.2 0.2 0.3 0.8 0.3 0.2s0.2 0.5 0.5 0.2a3.5,3.5,0,0,0,0.5 0.8C22.6,7.7,20.6,6.3,18.4,7.6Z" /><path d="M26.8,3.5Z" /></g></g></g></svg>
