<svg xmlns="http://www.w3.org/2000/svg" viewBox="-0.45 0 32 32" fill="currentColor"><g><g><path d="M31,14.3c-0.2-2.1-1.1-5.6-2.1-6.5s-4.4-2.5-4.4-2.5h0a4.8,4.8,0,0,0-1.8-0.4c-2.3-0.2-7.6,1.3-8.6,1.3s-1.6-0.7-2.7-1.3-2-0.1-3,0L6.7,4.5V3C6.8,2.2,7,0.7,5.9 0.1S4.2,1,4.1,1.9s-0.1 0.7-0.2 0.9H3a6.6,6.6,0,0,1-0.8-1.3C2,0.9,1.5-0.2 0.5,0S0.3,2.5 0.6,3.3A5.5,5.5,0,0,1,0.9,5h0A9.9,9.9,0,0,0,1,6.5a12.8,12.8,0,0,0,0.8,2c0.2 0.2 0.4 0.6 0.9 0.7A1.6,1.6,0,0,0,4,8.7H4a15.9,15.9,0,0,0,0.7,2c0.4,1.2,1.6,1.8,1.9,2.5s0.2,2.5 0.4,3.8 0.8,5,0.8,6.3a19.5,19.5,0,0,1-0.4,3.1c-0.1 0.1-0.4-0.2-1.3-0.2s-0.8,1-0.8,1.1a9.5,9.5,0,0,0,2.5 0.3A6.1,6.1,0,0,0,9,25.8a16.9,16.9,0,0,0,0.7-3.9l1,1.2c0.3 0.3 0.5,2.3,1.1,2.5s0.8-0.4,1-1.3-0.6-1.5-1-2.1a2.4,2.4,0,0,1-0.6-2l1.4-3.4a1.7,1.7,0,0,0,0-1h2.5a36.9,36.9,0,0,0,5.3-0.8s1.2,4.3,1.7,5.3a0.9 0.9,0,0,0,0.3 0.5c-0.1,2-0.3,4.8-0.4,5s-1.6,2.6-1.5,3.1a2.1,2.1,0,0,0,2,0.4c0.3-0.2 0.5-1.5 0.7-1.8a3.4,3.4,0,0,0,0.7-1.8c0.1-0.6 0.3-2.1 0.5-3.2A10.8,10.8,0,0,1,26.8,25a10.8,10.8,0,0,1,0.8,4.4c-0.1 0.8-0.3,1.2-0.5,1.2s-0.8-0.5-1.4-0.3-0.8,1-0.6,1.2a6,6,0,0,0,2.6 0.5,2.3,2.3,0,0,0,1.2-1.2c0.2-0.8,1-6.4,1.1-7.3s-3.4-5-3.5-5.9 0.8-2.6,1-3.7a0.4 0.4,0,0,0,0.1-0.3,17.7,17.7,0,0,0,0.4,2c0.4,1.7,1.2,2.9,2.1,3S31.2,16.4,31,14.3Z" /></g></g></svg>
