<svg xmlns="http://www.w3.org/2000/svg" viewBox="-4.44 0 31.86 31.86" fill="currentColor"><g><g><path d="M6.16,23.85h0a3.06,3.06,0,0,1-2.06-0.8 0.31 0.31,0,0,1,0-0.4L5,21.37a0.34 0.34,0,0,1,0.23-0.13 0.34 0.34,0,0,1,0.25 0.11h0a1.15,1.15,0,0,0,0.75 0.39 0.31 0.31,0,0,1,0.28 0.31v1.49a0.32 0.32,0,0,1-0.1 0.22A0.31 0.31,0,0,1,6.16,23.85Zm1-0.1A0.26 0.26,0,0,1,7,23.7a0.3 0.3,0,0,1-0.13-0.2L6.64,22a0.32 0.32,0,0,1,0.22-0.35,1.14,1.14,0,0,0,0.67-0.51A0.36 0.36,0,0,1,7.76,21a0.28 0.28,0,0,1,0.25 0.09L9.13,22.2a0.32 0.32,0,0,1,0,0.41,3.09,3.09,0,0,1-1.9,1.14ZM3.64,22.2H3.58A0.29 0.29,0,0,1,3.36,22a6,6,0,0,1-0.49-1.63A0.31 0.31,0,0,1,3.08,20l1.4-0.44a0.35 0.35,0,0,1,0.26,0,0.29 0.29,0,0,1,0.14 0.21,4.32,4.32,0,0,0,0.2 0.84A0.3 0.3,0,0,1,5,21l-1.15,1.1A0.29 0.29,0,0,1,3.64,22.2Zm5.77-0.51a0.41 0.41,0,0,1-0.18-0.05l-1.31-0.88a0.3 0.3,0,0,1-0.14-0.31,4.52,4.52,0,0,0,0-0.86 0.3 0.3,0,0,1,0.11-0.23 0.29 0.29,0,0,1,0.25-0.08l1.45 0.19a0.31 0.31,0,0,1,0.27 0.31,6.58,6.58,0,0,1-0.2,1.69 0.31 0.31,0,0,1-0.19 0.2A0.23 0.23,0,0,1,9.41,21.69Zm-3.07-0.34a0.2 0.2,0,0,1-0.14-0.06 0.17 0.17,0,0,1-0.07-0.14l0-0.24-0.24,0h0a0.22 0.22,0,0,1-0.22-0.2l0-0.27a0.21 0.21,0,0,1,0.19-0.23l0.24,0L6,20a0.19 0.19,0,0,1,0-0.16 0.19 0.19,0,0,1,0.14-0.07l0.27,0a0.23 0.23,0,0,1,0.24 0.2l0,0.23 0.23,0a0.22 0.22,0,0,1,0.23 0.2l0,0.27a0.21 0.21,0,0,1-0.2 0.23l-0.23,0,0,0.24a0.21 0.21,0,0,1,0,0.15 0.19 0.19,0,0,1-0.15 0.08l-0.27,0Zm0-0.25Zm0.27,0Zm-0.51-0.19h0Zm-0.23-0.43Zm0.88-0.26ZM6.25,20h0Zm0.23-0.06ZM3,19.6a0.32 0.32,0,0,1-0.2-0.07 0.3 0.3,0,0,1-0.11-0.22c0-0.31,0-0.64,0-1a0.33 0.33,0,0,1,0.1-0.24A0.33 0.33,0,0,1,3,18l1.48 0.16a0.31 0.31,0,0,1,0.27 0.3h0l0,0.64a0.31 0.31,0,0,1-0.27 0.33l-1.46 0.18Zm3.11-0.41a0.22 0.22,0,0,1-0.21-0.2l0-0.23-0.24,0h0a0.22 0.22,0,0,1-0.21-0.2l0-0.27a0.21 0.21,0,0,1,0.19-0.23l0.24,0,0-0.24a0.17 0.17,0,0,1,0-0.15A0.17 0.17,0,0,1,6,17.59l0.27,0a0.18 0.18,0,0,1,0.16 0.05 0.25 0.25,0,0,1,0.08 0.14l0,0.24 0.23,0A0.24 0.24,0,0,1,7,18a0.28 0.28,0,0,1,0.08 0.15l0,0.27a0.21 0.21,0,0,1-0.19 0.23l-0.24,0,0,0.24a0.21 0.21,0,0,1-0.2 0.23l-0.27,0Zm0-0.22Zm0.23-0.06Zm-0.5-0.19Zm0.66,0Zm-0.92-0.17Zm1.14-0.07Zm0-0.24ZM6.56,18h0Zm-0.5-0.18Zm0.23-0.06Zm1.8,1.33a0.31 0.31,0,0,1-0.31-0.28c0-0.21,0-0.42-0.09-0.63a0.32 0.32,0,0,1,0.22-0.35l1.43-0.41a0.31 0.31,0,0,1,0.25,0,0.28 0.28,0,0,1,0.14 0.21c0.06 0.37 0.1 0.69 0.13,1a0.31 0.31,0,0,1-0.08 0.23 0.33 0.33,0,0,1-0.21 0.11l-1.47 0.08Zm-5.23-3a0.31 0.31,0,0,1-0.29-0.21q-0.1-0.3-0.24-0.63a0.36 0.36,0,0,1,0-0.25 0.35 0.35,0,0,1,0.18-0.16l1.39-0.51a0.3 0.3,0,0,1,0.39 0.18c0.09 0.22 0.18 0.44 0.25 0.66a0.3 0.3,0,0,1-0.19 0.39h0L3.24,16l-0.27 0.1Zm6.23-0.56H9c-0.3,0-0.86-0.12-1.51-0.23A0.31 0.31,0,0,1,7.27,15a6.59,6.59,0,0,1,0-0.77 0.3 0.3,0,0,1,0.36-0.29h0l1.47 0.26a0.32 0.32,0,0,1,0.26 0.31,4.72,4.72,0,0,0,0,0.65 0.28 0.28,0,0,1-0.09 0.26A0.27 0.27,0,0,1,9.09,15.51ZM6,14.66a0.18 0.18,0,0,1-0.13-0.05 0.2 0.2,0,0,1-0.08-0.14l0-0.24-0.23,0a0.22 0.22,0,0,1-0.16-0.05 0.22 0.22,0,0,1-0.08-0.15l0-0.26a0.22 0.22,0,0,1,0.18-0.24l0.25,0,0-0.23a0.22 0.22,0,0,1,0.2-0.24l0.26,0a0.22 0.22,0,0,1,0.16 0.05 0.22 0.22,0,0,1,0.08 0.15l0,0.23 0.24,0a0.23 0.23,0,0,1,0.23 0.2l0,0.27a0.17 0.17,0,0,1,0,0.15 0.22 0.22,0,0,1-0.15 0.08l-0.23,0,0,0.24a0.22 0.22,0,0,1-0.19 0.23l-0.28,0Zm0-0.25Zm-0.23-0.21Zm0.7-0.07ZM5.54,14Zm1.13-0.13Zm-1.15-0.14Zm1.1-0.09Zm-0.26-0.2Zm-0.46-0.16Zm0.23-0.05h0Zm-4,1.13a0.33 0.33,0,0,1-0.28-0.17l-0.31-0.59a0.31 0.31,0,0,1,0-0.28 0.3 0.3,0,0,1,0.22-0.17l1.5-0.34a0.31 0.31,0,0,1,0.34 0.16c0.12 0.22 0.23 0.45 0.35 0.69a0.34 0.34,0,0,1,0,0.28 0.33 0.33,0,0,1-0.22 0.16l-1.53 0.25Zm5.55-0.67a0.32 0.32,0,0,1-0.24-0.11 0.35 0.35,0,0,1-0.07-0.26h0q0.09-0.43 0.24-0.93a0.29 0.29,0,0,1,0.32-0.21l1.51 0.14a0.33 0.33,0,0,1,0.23 0.14 0.29 0.29,0,0,1,0,0.26,6.29,6.29,0,0,0-0.2 0.72 0.31 0.31,0,0,1-0.3 0.23l-1.52,0Zm-2.6-0.91a0.21 0.21,0,0,1-0.21-0.19l0-0.24-0.24,0a0.2 0.2,0,0,1-0.15-0.05 0.17 0.17,0,0,1-0.08-0.14l0-0.27a0.23 0.23,0,0,1,0-0.16 0.21 0.21,0,0,1,0.15-0.07l0.24,0,0-0.23a0.22 0.22,0,0,1,0.2-0.23l0.27,0a0.22 0.22,0,0,1,0.23 0.2l0,0.23 0.24,0a0.24 0.24,0,0,1,0.23 0.2l0,0.27a0.33 0.33,0,0,1-0.05 0.16 0.21 0.21,0,0,1-0.15 0.07l-0.23,0,0,0.24a0.21 0.21,0,0,1-0.2 0.23l-0.27,0Zm0-0.21Zm0.23-0.06Zm-0.47-0.16Zm-0.25-0.19Zm1.13-0.14ZM4.57,12Zm0.25-0.27Zm0.67,0ZM1.24,12.74A0.32 0.32,0,0,1,1,12.57c-0.09-0.17-0.17-0.35-0.25-0.52a0.31 0.31,0,0,1,0-0.28A0.31 0.31,0,0,1,1,11.61l1.58-0.14a0.31 0.31,0,0,1,0.3 0.17c0.12 0.24 0.26 0.49 0.41 0.75a0.21 0.21,0,0,1,0,0.19 0.19 0.19,0,0,1-0.16 0.09l-1.84 0.07ZM3,12.51ZM8.17,12a0.3 0.3,0,0,1-0.24-0.12 0.28 0.28,0,0,1,0-0.29l0.06-0.16 0.21-0.61a0.3 0.3,0,0,1,0.29-0.21H10a0.31 0.31,0,0,1,0.25 0.13 0.3 0.3,0,0,1,0,0.27c-0.07 0.22-0.14 0.44-0.21 0.64a0.3 0.3,0,0,1-0.26 0.21L8.2,12Zm-6-0.78h0l-1.6-0.15a0.3 0.3,0,0,1-0.27-0.23A6.25,6.25,0,0,1,0.1,10a0.29 0.29,0,0,1,0.09-0.25 0.27 0.27,0,0,1,0.22-0.1h0l1.51 0.09a0.33 0.33,0,0,1,0.29 0.25h0a4.33,4.33,0,0,0,0.24 0.83 0.29 0.29,0,0,1-0.05 0.3A0.27 0.27,0,0,1,2.18,11.24Zm4.51-0.17a0.23 0.23,0,0,1-0.22-0.2v-0.23l-0.24,0a0.3 0.3,0,0,1-0.16-0.05A0.21 0.21,0,0,1,6,10.46l0-0.27a0.21 0.21,0,0,1,0.2-0.23l0.23,0,0-0.24a0.3 0.3,0,0,1,0-0.16 0.21 0.21,0,0,1,0.15-0.07l0.27,0A0.38 0.38,0,0,1,7,9.49a0.19 0.19,0,0,1,0.08 0.15l0,0.24 0.24,0a0.23 0.23,0,0,1,0.23 0.2l0,0.27a0.21 0.21,0,0,1-0.19 0.23l-0.24,0,0,0.24A0.21 0.21,0,0,1,7,11l-0.27,0Zm0-0.22Zm-0.27-0.25Zm0.7-0.06Zm-0.92-0.1h0Zm1.14-0.14Zm-0.94-0.37Zm0.66,0h0Zm-0.27-0.25ZM3.83,11a0.22 0.22,0,0,1-0.21-0.2l0-0.24-0.24,0h0a0.22 0.22,0,0,1-0.21-0.2l0-0.27a0.21 0.21,0,0,1,0.2-0.23l0.23,0,0-0.24a0.3 0.3,0,0,1,0.05-0.16 0.21 0.21,0,0,1,0.15-0.07l0.27,0a0.23 0.23,0,0,1,0.23 0.2l0,0.23 0.24,0a0.43 0.43,0,0,1,0.16 0.05A0.21 0.21,0,0,1,4.7,10l0,0.27a0.21 0.21,0,0,1-0.19 0.23l-0.24,0,0,0.24a0.21 0.21,0,0,1-0.19 0.23l-0.27,0Zm-0.24-0.47Zm0.92-0.3ZM3.35,10.1Zm0.38-0.45Zm0.27,0Zm4.68 0.79a0.31 0.31,0,0,1-0.22-0.09A0.34 0.34,0,0,1,8.38,10h0a6.42,6.42,0,0,0,0.14-0.74A0.31 0.31,0,0,1,8.78,9l1.51-0.2a0.33 0.33,0,0,1,0.25 0.08 0.35 0.35,0,0,1,0.1 0.25c0,0.24-0.05 0.47-0.09 0.7a0.32 0.32,0,0,1-0.24 0.26l-1.57 0.3ZM1.83,9.47H1.75L0.25,9.08A0.31 0.31,0,0,1,0,8.79c0-0.27,0-0.54,0-0.85A0.33 0.33,0,0,1,0.12,7.7a0.3 0.3,0,0,1,0.27,0L1.92,8a0.31 0.31,0,0,1,0.23 0.31h0a7.15,7.15,0,0,0,0,0.8A0.3 0.3,0,0,1,2,9.4 0.26 0.26,0,0,1,1.83,9.47ZM3.42,9.1a0.21 0.21,0,0,1-0.21-0.19l0-0.24L3,8.69a0.21 0.21,0,0,1-0.23-0.19l0-0.27A0.22 0.22,0,0,1,2.89,8l0.24,0,0-0.23a0.22 0.22,0,0,1,0.2-0.23l0.27,0a0.24 0.24,0,0,1,0.16,0,0.21 0.21,0,0,1,0.07 0.15l0,0.23 0.24,0h0a0.22 0.22,0,0,1,0.22 0.2l0,0.27a0.25 0.25,0,0,1-0.05 0.15 0.19 0.19,0,0,1-0.15 0.08l-0.23,0,0,0.24A0.27 0.27,0,0,1,3.86,9a0.19 0.19,0,0,1-0.15 0.08l-0.27,0Zm0-0.21Zm0.23-0.06Zm0.19-0.25Zm0.22-0.24ZM4,8.11ZM3.83,8ZM3.55,7.7ZM7,9.09a0.22 0.22,0,0,1-0.22-0.19l0-0.24-0.23,0h0a0.23 0.23,0,0,1-0.22-0.2l0-0.27a0.21 0.21,0,0,1,0-0.15A0.22 0.22,0,0,1,6.44,8l0.23,0,0-0.24a0.21 0.21,0,0,1,0-0.15 0.28 0.28,0,0,1,0.15-0.08l0.27,0a0.21 0.21,0,0,1,0.23 0.19l0,0.24 0.24,0a0.16 0.16,0,0,1,0.15,0,0.22 0.22,0,0,1,0.08 0.15l0,0.26a0.18 0.18,0,0,1-0.05 0.16 0.22 0.22,0,0,1-0.15 0.08l-0.24,0,0,0.23a0.22 0.22,0,0,1-0.19 0.24L7,9.09Zm0.23-0.24Zm-0.47-0.23Zm-0.27-0.39ZM6.71,8Zm0.16-0.22Zm2,1a0.28 0.28,0,0,1-0.18-0.06 0.31 0.31,0,0,1-0.13-0.25c0-0.27,0-0.52,0-0.77v0a0.3 0.3,0,0,1,0.21-0.31l1.44-0.46a0.3 0.3,0,0,1,0.26,0,0.31 0.31,0,0,1,0.14 0.23h0l0,0.37a3.4,3.4,0,0,1,0,0.45 0.3 0.3,0,0,1-0.21 0.31L9,8.77Zm-7-1a0.28 0.28,0,0,1-0.13,0L0.24,7a0.31 0.31,0,0,1-0.18-0.31c0-0.29 0.07-0.58 0.11-0.87a0.32 0.32,0,0,1,0.17-0.22 0.31 0.31,0,0,1,0.28,0l1.56 0.82a0.32 0.32,0,0,1,0.16 0.33c0,0.23-0.09 0.47-0.12 0.73a0.33 0.33,0,0,1-0.15 0.23A0.28 0.28,0,0,1,1.92,7.77Zm4.43-0.58a0.19 0.19,0,0,1-0.14-0.05A0.19 0.19,0,0,1,6.14,7l0-0.24-0.24,0a0.22 0.22,0,0,1-0.23-0.2l0-0.26a0.22 0.22,0,0,1,0-0.16 0.28 0.28,0,0,1,0.15-0.08l0.23,0,0-0.23a0.22 0.22,0,0,1,0.2-0.24l0.27,0a0.25 0.25,0,0,1,0.16,0,0.21 0.21,0,0,1,0.07 0.15l0,0.23L7,6a0.2 0.2,0,0,1,0.15,0,0.19 0.19,0,0,1,0.08 0.15l0,0.27a0.27 0.27,0,0,1,0,0.15 0.22 0.22,0,0,1-0.15 0.08l-0.24,0,0,0.23a0.22 0.22,0,0,1-0.19 0.24l-0.27,0Zm0-0.22h0Zm0.4-0.27ZM5.9,6.56ZM7,6.43Zm-1.19-0.1ZM7,6.23Zm-0.92-0.17ZM6.72,6Zm-0.47-0.16Zm0.23,0ZM4,7.13a0.22 0.22,0,0,1-0.21-0.2l0-0.23-0.23,0a0.33 0.33,0,0,1-0.16,0,0.21 0.21,0,0,1-0.07-0.15l0-0.27A0.21 0.21,0,0,1,3.46,6l0.23,0,0-0.24a0.3 0.3,0,0,1,0.05-0.16 0.21 0.21,0,0,1,0.15-0.07l0.27,0a0.25 0.25,0,0,1,0.15,0,0.19 0.19,0,0,1,0.08 0.15l0,0.24 0.24,0a0.2 0.2,0,0,1,0.23 0.19l0,0.27a0.21 0.21,0,0,1-0.19 0.23l-0.24,0,0,0.24a0.2 0.2,0,0,1,0,0.15 0.19 0.19,0,0,1-0.15 0.08L4,7.13Zm0.27-0.28h0ZM3.54,6.5Zm1.09-0.1Zm0-0.27ZM4.39,6Zm-0.27-0.25Zm4.63,1.4a0.32 0.32,0,0,1-0.14,0,0.31 0.31,0,0,1-0.17-0.23h0c0-0.23-0.07-0.44-0.11-0.66a0.29 0.29,0,0,1,0.14-0.32L9.81,5a0.28 0.28,0,0,1,0.28,0,0.32 0.32,0,0,1,0.19 0.22q0.08 0.38 0.15 0.78a0.32 0.32,0,0,1-0.16 0.33l-1.38 0.75A0.32 0.32,0,0,1,8.75,7.12Zm-6.51-1a0.31 0.31,0,0,1-0.19-0.06L0.56,4.89a0.32 0.32,0,0,1-0.11-0.33c0.1-0.32 0.2-0.63 0.32-0.92A0.3 0.3,0,0,1,1,3.45a0.32 0.32,0,0,1,0.28 0.08L2.68,4.91a0.32 0.32,0,0,1,0.08 0.33h0a6.76,6.76,0,0,0-0.22 0.68 0.32 0.32,0,0,1-0.21 0.21Zm6.18-0.57H8.34a0.31 0.31,0,0,1-0.22-0.22h0a4.75,4.75,0,0,0-0.18-0.57 0.31 0.31,0,0,1,0-0.31L9.11,3.11A0.33 0.33,0,0,1,9.39,3a0.31 0.31,0,0,1,0.24 0.19c0.12 0.27 0.22 0.55 0.32 0.84a0.32 0.32,0,0,1-0.09 0.32L8.63,5.49A0.3 0.3,0,0,1,8.42,5.57ZM5.28,5.33a0.21 0.21,0,0,1-0.21-0.19l0-0.24-0.24,0a0.19 0.19,0,0,1-0.16,0,0.19 0.19,0,0,1-0.07-0.14l0-0.27a0.3 0.3,0,0,1,0-0.16 0.28 0.28,0,0,1,0.15-0.08L5,4.2,5,4a0.21 0.21,0,0,1,0.2-0.23l0.27,0a0.2 0.2,0,0,1,0.23 0.2l0,0.23 0.24,0a0.22 0.22,0,0,1,0.23 0.2l0,0.27a0.2 0.2,0,0,1,0,0.16A0.17 0.17,0,0,1,6,4.82l-0.24,0,0,0.24a0.2 0.2,0,0,1,0,0.16 0.19 0.19,0,0,1-0.14 0.07l-0.27,0Zm0.27-0.27Zm-0.72-0.35ZM6,4.57Zm-1.19-0.1ZM5.9,4.34Zm-3,0.22a0.32 0.32,0,0,1-0.26-0.13L1.43,2.73a0.3 0.3,0,0,1,0-0.35,6.36,6.36,0,0,1,0.72-0.89A0.32 0.32,0,0,1,2.4,1.4a0.33 0.33,0,0,1,0.23 0.16l1,1.85a0.32 0.32,0,0,1,0,0.35,5.14,5.14,0,0,0-0.44 0.64 0.29 0.29,0,0,1-0.25 0.16ZM7.8,4a0.32 0.32,0,0,1-0.27-0.16h0a2.78,2.78,0,0,0-0.41-0.57A0.34 0.34,0,0,1,7.06,3l0.65-1.83A0.3 0.3,0,0,1,7.93,1,0.32 0.32,0,0,1,8.21,1,5.11,5.11,0,0,1,9,1.93a0.31 0.31,0,0,1,0,0.32l-0.9,1.63A0.33 0.33,0,0,1,7.81,4ZM4.05,3.2H4A0.31 0.31,0,0,1,3.76,3L3.13,1A0.31 0.31,0,0,1,3.28 0.63,4.71,4.71,0,0,1,4.34 0.2a0.29 0.29,0,0,1,0.24,0,0.31 0.31,0,0,1,0.14 0.2l0.42,2a0.31 0.31,0,0,1-0.21 0.36h0a2.45,2.45,0,0,0-0.7 0.36A0.35 0.35,0,0,1,4.05,3.2Zm2.49-0.4-0.12,0a1.79,1.79,0,0,0-0.83-0.13 0.26 0.26,0,0,1-0.15,0,0.2 0.2,0,0,1-0.06-0.14l0-2.15A0.32 0.32,0,0,1,5.42 0.09 0.36 0.36,0,0,1,5.64,0H5.7A3.56,3.56,0,0,1,7,0.23a0.31 0.31,0,0,1,0.19 0.34l-0.31,2a0.31 0.31,0,0,1-0.15 0.23Zm-0.91-0.34ZM5.56,2.4Z" /><path d="M16.83,31.86h0a3,3,0,0,0,2.07-0.79 0.32 0.32,0,0,0,0-0.41L18,29.39a0.34 0.34,0,0,0-0.24-0.13 0.3 0.3,0,0,0-0.24 0.11h0a1.22,1.22,0,0,1-0.76 0.39 0.31 0.31,0,0,0-0.27 0.31v1.49a0.31 0.31,0,0,0,0.09 0.22A0.35 0.35,0,0,0,16.83,31.86Zm-1.06-0.09a0.35 0.35,0,0,0,0.18-0.05 0.34 0.34,0,0,0,0.13-0.2l0.27-1.47a0.31 0.31,0,0,0-0.22-0.35,1.18,1.18,0,0,1-0.68-0.51 0.31 0.31,0,0,0-0.22-0.15 0.3 0.3,0,0,0-0.26 0.09l-1.12,1.09a0.31 0.31,0,0,0,0,0.4,3,3,0,0,0,1.89,1.15Zm3.58-1.56h0a0.33 0.33,0,0,0,0.23-0.17,6.54,6.54,0,0,0,0.49-1.63 0.31 0.31,0,0,0-0.21-0.35l-1.41-0.44a0.28 0.28,0,0,0-0.25,0,0.26 0.26,0,0,0-0.14 0.21,4.82,4.82,0,0,1-0.2 0.83A0.29 0.29,0,0,0,18,29l1.15,1.1A0.3 0.3,0,0,0,19.35,30.21Zm-5.77-0.5a0.34 0.34,0,0,0,0.17-0.05l1.32-0.88a0.31 0.31,0,0,0,0.13-0.31,4.52,4.52,0,0,1,0-0.86 0.33 0.33,0,0,0-0.1-0.23 0.3 0.3,0,0,0-0.25-0.08l-1.45 0.19a0.3 0.3,0,0,0-0.27 0.31,6.1,6.1,0,0,0,0.2,1.68 0.31 0.31,0,0,0,0.19 0.21Zm3.06-0.35a0.19 0.19,0,0,0,0.14-0.05 0.25 0.25,0,0,0,0.08-0.14l0-0.24 0.23,0h0a0.21 0.21,0,0,0,0.22-0.19l0-0.27a0.23 0.23,0,0,0-0.19-0.24l-0.24,0L17,28a0.22 0.22,0,0,0-0.05-0.16 0.28 0.28,0,0,0-0.15-0.08l-0.27,0a0.23 0.23,0,0,0-0.23 0.2l0,0.23-0.24,0a0.22 0.22,0,0,0-0.23 0.2l0,0.27a0.21 0.21,0,0,0,0.19 0.23l0.24,0,0,0.23a0.22 0.22,0,0,0,0,0.16 0.28 0.28,0,0,0,0.15 0.08l0.27,0Zm0-0.25Zm-0.27,0Zm0.5-0.19Zm0.24-0.44Zm-0.88-0.25Zm0.5-0.2ZM16.51,28ZM20,27.62a0.32 0.32,0,0,0,0.2-0.08 0.31 0.31,0,0,0,0.11-0.21c0-0.31,0-0.64,0-1a0.35 0.35,0,0,0-0.1-0.24A0.31 0.31,0,0,0,20,26l-1.48 0.16a0.31 0.31,0,0,0-0.28 0.3h0c0,0.22,0,0.43,0,0.64a0.32 0.32,0,0,0,0.28 0.33l1.45 0.17Zm-3.12-0.42a0.19 0.19,0,0,0,0.14-0.05 0.22 0.22,0,0,0,0.08-0.14l0-0.24 0.23,0h0a0.21 0.21,0,0,0,0.21-0.19l0-0.27a0.21 0.21,0,0,0-0.2-0.23l-0.23,0,0-0.23a0.24 0.24,0,0,0,0-0.16 0.21 0.21,0,0,0-0.15-0.07l-0.27,0a0.28 0.28,0,0,0-0.16 0.05 0.21 0.21,0,0,0-0.07 0.15l0,0.23-0.24,0A0.21 0.21,0,0,0,16,26a0.19 0.19,0,0,0-0.08 0.15l0,0.27a0.22 0.22,0,0,0,0.18 0.23l0.25,0,0,0.24a0.21 0.21,0,0,0,0.19 0.23l0.27,0Zm0-0.21Zm-0.24-0.06Zm0.51-0.19Zm-0.67,0h0Zm0.92-0.17Zm-1.14-0.06Zm0-0.24Zm0.26-0.2h0Zm0.5-0.18Zm-0.23-0.06Zm-1.8,1.33a0.31 0.31,0,0,0,0.31-0.28c0-0.21,0-0.42 0.08-0.63a0.31 0.31,0,0,0-0.22-0.35l-1.42-0.41a0.34 0.34,0,0,0-0.26,0,0.37 0.37,0,0,0-0.14 0.22c-0.05 0.37-0.09 0.69-0.12,1a0.32 0.32,0,0,0,0.07 0.23 0.33 0.33,0,0,0,0.22 0.11l1.46 0.08Zm5.22-3.05a0.31 0.31,0,0,0,0.3-0.21,5.67,5.67,0,0,1,0.24-0.63 0.29 0.29,0,0,0,0-0.24 0.29 0.29,0,0,0-0.17-0.17l-1.39-0.5a0.32 0.32,0,0,0-0.4 0.17c-0.09 0.23-0.17 0.45-0.25 0.67a0.31 0.31,0,0,0,0.19 0.39h0l1.12 0.41 0.27 0.09A0.18 0.18,0,0,0,20.12,24.08Zm-6.22-0.55h0l1.51-0.23a0.3 0.3,0,0,0,0.26-0.28,6.62,6.62,0,0,0,0-0.77A0.35 0.35,0,0,0,15.6,22a0.29 0.29,0,0,0-0.25-0.06h0l-1.47 0.26a0.3 0.3,0,0,0-0.25 0.31,4.82,4.82,0,0,1,0,0.65 0.31 0.31,0,0,0,0.31 0.35ZM17,22.68a0.24 0.24,0,0,0,0.14-0.05 0.21 0.21,0,0,0,0.07-0.15l0-0.23 0.24,0a0.24 0.24,0,0,0,0.16-0.05 0.21 0.21,0,0,0,0.07-0.15l0-0.27a0.22 0.22,0,0,0-0.19-0.23l-0.24,0,0-0.23a0.22 0.22,0,0,0-0.2-0.24l-0.27,0a0.2 0.2,0,0,0-0.16 0.05 0.19 0.19,0,0,0-0.07 0.14l0,0.24-0.25,0a0.22 0.22,0,0,0-0.22 0.2l0,0.26a0.22 0.22,0,0,0,0,0.16 0.28 0.28,0,0,0,0.15 0.08l0.23,0,0,0.23a0.24 0.24,0,0,0,0.2 0.24l0.27,0Zm0-0.25Zm0.24-0.22Zm-0.7-0.06Zm0.91-0.1Zm-1.13-0.13Zm1.16-0.14Zm-1.1-0.09Zm0.25-0.2Zm0.47-0.16Zm-0.23,0Zm4,1.12a0.3 0.3,0,0,0,0.27-0.16c0.11-0.2 0.21-0.4 0.32-0.59a0.31 0.31,0,0,0,0-0.28 0.3 0.3,0,0,0-0.21-0.17l-1.5-0.34a0.3 0.3,0,0,0-0.34 0.15c-0.12 0.22-0.24 0.45-0.36 0.7a0.29 0.29,0,0,0,0,0.27 0.3 0.3,0,0,0,0.22 0.17l1.53 0.25Zm-5.55-0.66a0.28 0.28,0,0,0,0.23-0.11 0.31 0.31,0,0,0,0.07-0.26h0c-0.06-0.3-0.13-0.6-0.23-0.93a0.32 0.32,0,0,0-0.33-0.22l-1.5 0.15a0.26 0.26,0,0,0-0.23 0.13 0.32 0.32,0,0,0,0,0.27,7.18,7.18,0,0,1,0.21 0.71 0.31 0.31,0,0,0,0.3 0.24l1.51,0Zm2.59-0.91a0.22 0.22,0,0,0,0.22-0.2l0-0.23 0.23,0a0.22 0.22,0,0,0,0.16-0.05 0.28 0.28,0,0,0,0.08-0.15l0-0.26a0.22 0.22,0,0,0-0.05-0.16 0.22 0.22,0,0,0-0.15-0.08l-0.23,0,0-0.23a0.23 0.23,0,0,0-0.19-0.24l-0.28,0a0.23 0.23,0,0,0-0.23 0.2l0,0.23-0.23,0a0.24 0.24,0,0,0-0.24 0.2l0,0.27a0.17 0.17,0,0,0,0,0.15 0.22 0.22,0,0,0,0.15 0.08l0.23,0,0,0.23a0.22 0.22,0,0,0,0.2 0.24l0.27,0Zm0-0.22Zm-0.23-0.05Zm0.46-0.16Zm0.26-0.2Zm-1.13-0.13Zm1.18-0.1Zm-0.24-0.27Zm-0.67,0Zm4.24,1.08a0.32 0.32,0,0,0,0.28-0.17c0.09-0.17 0.18-0.35 0.26-0.52a0.33 0.33,0,0,0,0-0.29 0.33 0.33,0,0,0-0.24-0.15l-1.57-0.14a0.29 0.29,0,0,0-0.3 0.16l-0.41 0.76a0.19 0.19,0,0,0,0,0.18 0.2 0.2,0,0,0,0.15 0.1l1.85 0.07ZM20,20.53ZM14.81,20a0.3 0.3,0,0,0,0.25-0.12 0.34 0.34,0,0,0,0-0.29l-0.06-0.16-0.21-0.61a0.31 0.31,0,0,0-0.29-0.21H13a0.3 0.3,0,0,0-0.25 0.13 0.29 0.29,0,0,0-0.05 0.27c0.06 0.22 0.13 0.43 0.2 0.64a0.31 0.31,0,0,0,0.27 0.21l1.62 0.15Zm6-0.78h0l1.6-0.15a0.34 0.34,0,0,0,0.27-0.23,8.17,8.17,0,0,0,0.17-0.86 0.34 0.34,0,0,0-0.08-0.26 0.32 0.32,0,0,0-0.23-0.09h0L21,17.76a0.31 0.31,0,0,0-0.28 0.25h0a4.33,4.33,0,0,1-0.24 0.83 0.32 0.32,0,0,0,0,0.3A0.3 0.3,0,0,0,20.8,19.26Zm-4.51-0.18a0.21 0.21,0,0,0,0.22-0.19l0-0.24 0.24,0a0.26 0.26,0,0,0,0.15,0,0.22 0.22,0,0,0,0.08-0.15l0-0.27a0.22 0.22,0,0,0-0.19-0.24l-0.24,0,0-0.23a0.18 0.18,0,0,0-0.05-0.16 0.21 0.21,0,0,0-0.14-0.07l-0.27,0a0.22 0.22,0,0,0-0.16 0.05 0.28 0.28,0,0,0-0.08 0.15l0,0.23-0.23,0a0.23 0.23,0,0,0-0.23 0.2l0,0.27a0.21 0.21,0,0,0,0.2 0.23l0.23,0,0,0.24a0.21 0.21,0,0,0,0.2 0.23l0.27,0Zm0-0.21Zm0.27-0.25Zm-0.69-0.06Zm0.91-0.1Zm-1.13-0.14Zm0.94-0.37Zm-0.67,0Zm0.27-0.25Zm3,1.33a0.22 0.22,0,0,0,0.22-0.19l0-0.24 0.23,0h0a0.22 0.22,0,0,0,0.22-0.19l0-0.27a0.22 0.22,0,0,0-0.19-0.24l-0.24,0,0-0.23a0.18 0.18,0,0,0,0-0.16 0.21 0.21,0,0,0-0.15-0.07l-0.26,0a0.22 0.22,0,0,0-0.24 0.2l0,0.23-0.23,0a0.38 0.38,0,0,0-0.16 0.05 0.22 0.22,0,0,0-0.08 0.15l0,0.27a0.21 0.21,0,0,0,0.2 0.23l0.23,0,0,0.24a0.22 0.22,0,0,0,0.19 0.23l0.28,0Zm0.24-0.46h0Zm-0.91-0.3Zm1.15-0.13Zm-0.38-0.46h0Zm-0.27,0Zm-4.68 0.79a0.28 0.28,0,0,0,0.22-0.09 0.29 0.29,0,0,0,0.08-0.29h0a6.37,6.37,0,0,1-0.13-0.74A0.32 0.32,0,0,0,14.2,17l-1.5-0.2a0.34 0.34,0,0,0-0.26 0.08 0.29 0.29,0,0,0-0.09 0.25c0,0.23,0,0.47 0.08 0.7a0.3 0.3,0,0,0,0.25 0.25l1.56 0.31Zm6.86-0.94h0.07l1.51-0.38a0.31 0.31,0,0,0,0.23-0.29c0-0.27,0-0.55,0-0.85a0.29 0.29,0,0,0-0.12-0.24 0.3 0.3,0,0,0-0.26-0.06l-1.53 0.4a0.29 0.29,0,0,0-0.23 0.31h0c0,0.27,0,0.54,0,0.8a0.33 0.33,0,0,0,0.11 0.25A0.37 0.37,0,0,0,21.16,17.49Zm-1.6-0.37a0.22 0.22,0,0,0,0.22-0.2l0-0.23 0.23,0a0.24 0.24,0,0,0,0.24-0.19l0-0.27A0.22 0.22,0,0,0,20.1,16l-0.24,0,0-0.24a0.22 0.22,0,0,0-0.2-0.23l-0.27,0a0.21 0.21,0,0,0-0.15 0.05 0.2 0.2,0,0,0-0.08 0.15l0,0.23-0.23,0h0a0.23 0.23,0,0,0-0.22 0.2l0,0.27a0.17 0.17,0,0,0,0,0.15 0.22 0.22,0,0,0,0.15 0.08l0.23,0,0,0.23a0.18 0.18,0,0,0,0.05 0.16 0.22 0.22,0,0,0,0.15 0.08l0.26,0Zm0-0.22Zm-0.23,0Zm-0.2-0.26Zm-0.21-0.23Zm0.05-0.23Zm0.22-0.17Zm0.27-0.24ZM16,17.11a0.21 0.21,0,0,0,0.22-0.2l0-0.23 0.24,0h0a0.23 0.23,0,0,0,0.22-0.2l0-0.27a0.2 0.2,0,0,0,0-0.16 0.19 0.19,0,0,0-0.14-0.07l-0.24,0,0-0.24a0.2 0.2,0,0,0,0-0.15 0.19 0.19,0,0,0-0.15-0.08l-0.27,0a0.21 0.21,0,0,0-0.23 0.19l0,0.24-0.23,0a0.18 0.18,0,0,0-0.16,0,0.19 0.19,0,0,0-0.07 0.14l0,0.27a0.28 0.28,0,0,0,0.05 0.16 0.19 0.19,0,0,0,0.15 0.07l0.24,0,0,0.23a0.21 0.21,0,0,0,0.2 0.23l0.27,0Zm-0.23-0.24Zm0.48-0.23h0Zm0.27-0.39ZM16.28,16Zm-0.17-0.22h0Zm-2,1a0.32 0.32,0,0,0,0.32-0.32,6.35,6.35,0,0,1,0-0.76v0a0.31 0.31,0,0,0-0.21-0.31l-1.44-0.47a0.35 0.35,0,0,0-0.26,0,0.3 0.3,0,0,0-0.14 0.22h0c0,0.12,0,0.24,0,0.37l0,0.45a0.31 0.31,0,0,0,0.21 0.31l1.47 0.48Zm7-1a0.31 0.31,0,0,0,0.13,0L22.74,15a0.31 0.31,0,0,0,0.18-0.31c0-0.29-0.06-0.58-0.11-0.87a0.3 0.3,0,0,0-0.45-0.22l-1.55 0.82a0.3 0.3,0,0,0-0.16 0.33c0,0.23 0.08 0.47 0.11 0.73a0.31 0.31,0,0,0,0.16 0.23A0.37 0.37,0,0,0,21.07,15.79Zm-4.43-0.58a0.24 0.24,0,0,0,0.13-0.05 0.22 0.22,0,0,0,0.08-0.15l0-0.23 0.23,0a0.23 0.23,0,0,0,0.24-0.2l0-0.27a0.17 0.17,0,0,0-0.05-0.15 0.2 0.2,0,0,0-0.15-0.08l-0.23,0,0-0.24a0.17 0.17,0,0,0-0.05-0.15 0.22 0.22,0,0,0-0.15-0.08l-0.27,0a0.21 0.21,0,0,0-0.15 0.05 0.2 0.2,0,0,0-0.08 0.15l0,0.23L16,14a0.22 0.22,0,0,0-0.16 0.05 0.25 0.25,0,0,0-0.08 0.14l0,0.27a0.18 0.18,0,0,0,0,0.16 0.22 0.22,0,0,0,0.15 0.08l0.23,0,0,0.23a0.23 0.23,0,0,0,0.2 0.24l0.27,0Zm0-0.22Zm-0.4-0.27Zm0.89-0.14ZM16,14.45Zm1.18-0.1ZM16,14.25Zm0.93-0.17ZM16.27,14Zm0.46-0.16Zm-0.23,0ZM19,15.14a0.21 0.21,0,0,0,0.22-0.19l0-0.24 0.24,0a0.17 0.17,0,0,0,0.15-0.05 0.2 0.2,0,0,0,0.08-0.14l0-0.27a0.21 0.21,0,0,0-0.19-0.23l-0.24,0,0-0.23a0.19 0.19,0,0,0,0-0.16 0.19 0.19,0,0,0-0.14-0.07l-0.27,0a0.25 0.25,0,0,0-0.16 0.05 0.28 0.28,0,0,0-0.08 0.15l0,0.23-0.23,0a0.2 0.2,0,0,0-0.23 0.2l0,0.27a0.22 0.22,0,0,0,0.2 0.23l0.23,0,0,0.24a0.21 0.21,0,0,0,0,0.15 0.22 0.22,0,0,0,0.15 0.08l0.27,0Zm-0.26-0.27Zm0.72-0.36Zm-1.1-0.09Zm0-0.27h0Zm0.21-0.16Zm0.27-0.25Zm-4.62,1.4a0.35 0.35,0,0,0,0.14,0,0.33 0.33,0,0,0,0.17-0.23h0a6.49,6.49,0,0,1,0.11-0.66 0.33 0.33,0,0,0-0.14-0.33l-1.34-0.84a0.33 0.33,0,0,0-0.29,0,0.31 0.31,0,0,0-0.18 0.22c-0.06 0.25-0.11 0.51-0.16 0.78a0.3 0.3,0,0,0,0.16 0.32l1.38 0.75A0.28 0.28,0,0,0,14.24,15.14Zm6.51-1a0.3 0.3,0,0,0,0.19-0.07l1.49-1.18a0.34 0.34,0,0,0,0.1-0.33,7.63,7.63,0,0,0-0.32-0.92 0.28 0.28,0,0,0-0.22-0.19 0.32 0.32,0,0,0-0.28 0.08L20.3,12.93a0.29 0.29,0,0,0-0.07 0.33h0c0.08 0.21 0.15 0.44 0.22 0.67a0.3 0.3,0,0,0,0.2 0.21Zm-6.19-0.58h0.08a0.34 0.34,0,0,0,0.22-0.22h0c0.06-0.2 0.12-0.4 0.18-0.58a0.3 0.3,0,0,0,0-0.3l-1.11-1.35A0.29 0.29,0,0,0,13.6,11a0.34 0.34,0,0,0-0.25 0.18c-0.11 0.27-0.22 0.56-0.31 0.84a0.31 0.31,0,0,0,0.08 0.33l1.23,1.13A0.29 0.29,0,0,0,14.56,13.58Zm3.14-0.23a0.22 0.22,0,0,0,0.22-0.19l0-0.24 0.23,0a0.18 0.18,0,0,0,0.16,0,0.22 0.22,0,0,0,0.08-0.15l0-0.26a0.18 0.18,0,0,0-0.05-0.16 0.22 0.22,0,0,0-0.15-0.08l-0.23,0L18,12a0.23 0.23,0,0,0-0.19-0.24l-0.27,0a0.2 0.2,0,0,0-0.24 0.19l0,0.24-0.23,0a0.23 0.23,0,0,0-0.24 0.2l0,0.27a0.21 0.21,0,0,0,0.05 0.15 0.22 0.22,0,0,0,0.15 0.08l0.23,0,0,0.23a0.22 0.22,0,0,0,0.05 0.16 0.22 0.22,0,0,0,0.15 0.08l0.26,0Zm-0.26-0.27Zm0.72-0.36ZM17,12.59Zm1.18-0.1Zm-1.13-0.13Zm3,0.22a0.3 0.3,0,0,0,0.25-0.13l1.2-1.7a0.32 0.32,0,0,0,0-0.35,5.24,5.24,0,0,0-0.71-0.89 0.33 0.33,0,0,0-0.27-0.09 0.35 0.35,0,0,0-0.23 0.16l-1,1.85a0.3 0.3,0,0,0,0,0.34,4.35,4.35,0,0,1,0.44 0.65 0.33 0.33,0,0,0,0.25 0.16Zm-4.93-0.53a0.29 0.29,0,0,0,0.27-0.15h0a3.73,3.73,0,0,1,0.41-0.58 0.29 0.29,0,0,0,0.06-0.31l-0.64-1.83a0.31 0.31,0,0,0-0.51-0.12A5.55,5.55,0,0,0,14,10a0.31 0.31,0,0,0,0,0.32l0.9,1.62a0.32 0.32,0,0,0,0.27 0.16Zm3.75-0.83a0.16 0.16,0,0,0,0.1,0,0.31 0.31,0,0,0,0.2-0.2l0.62-2a0.29 0.29,0,0,0-0.14-0.36,4.45,4.45,0,0,0-1.06-0.43 0.32 0.32,0,0,0-0.25,0,0.32 0.32,0,0,0-0.14 0.2l-0.41,2a0.3 0.3,0,0,0,0.2 0.36h0a2.33,2.33,0,0,1,0.7 0.36A0.41 0.41,0,0,0,18.93,11.22Zm-2.48-0.4a0.27 0.27,0,0,0,0.12,0,1.75,1.75,0,0,1,0.82-0.12 0.21 0.21,0,0,0,0.15-0.05 0.17 0.17,0,0,0,0.07-0.14l0-2.15a0.31 0.31,0,0,0-0.09-0.22A0.27 0.27,0,0,0,17.35,8h-0.06A3.35,3.35,0,0,0,16,8.25a0.3 0.3,0,0,0-0.2 0.33l0.31,2a0.3 0.3,0,0,0,0.16 0.22A0.28 0.28,0,0,0,16.45,10.82Zm0.91-0.34Zm0.06-0.06Z" /></g></g></svg>
